<?xml version="1.0" encoding="utf-8"?>
<!-- Generator: Adobe Illustrator 16.0.2, SVG Export Plug-In . SVG Version: 6.00 Build 0)  -->
<!DOCTYPE svg PUBLIC "-//W3C//DTD SVG 1.1//EN" "http://www.w3.org/Graphics/SVG/1.1/DTD/svg11.dtd">
<svg version="1.1" id="Layer_1" xmlns="http://www.w3.org/2000/svg" xmlns:xlink="http://www.w3.org/1999/xlink" x="0px" y="0px"
	 width="1920px" height="297.07px" viewBox="0 0 1920 297.07" enable-background="new 0 0 1920 297.07" xml:space="preserve">
<path opacity="0.07" fill="#FFFFFF" d="M2085.164-7.815c0,0-38.074,233.825-363.071,238.257
	c-212.453,2.896-235.166-78.424-480.02-109.297c-247.412-31.197-431.32,31.974-647.226-18.937
	C400.85,56.468,64.378-28.661-221.128,84.564c145.03,135.112,748.463,253.433,748.463,253.433s230.061,64.104,750.161,40.712
	c520.106-23.389,520.106-23.389,520.106-23.389l305.063-63.216"/>
<g opacity="0.4">
</g>
<path fill="none" d="M1956.869,471.841H-2.01c-9.201,0-16.662-3.03-16.662-6.771V-73.64c0-3.742,7.46-6.775,16.662-6.775h1958.879
	c9.2,0,16.657,3.033,16.657,6.775v538.709C1973.526,468.811,1966.069,471.841,1956.869,471.841z"/>
<path fill="#FFFFFF" d="M-49.319,102.767c0,0,228.633-55.182,558.316-1.571c329.681,53.608,513.072,112.798,752.66,142.131
	c637.835,78.098,785.121-69.656,785.121,11.182c0,221.57,50.964,315.987,50.964,315.987L129.483,555.854L-99.1,489.582
	l-83.518-141.245"/>
</svg>
